<svg height="810" id="vis" viewBox="-5 -5 810 810" width="810" xmlns="http://www.w3.org/2000/svg">
<rect fill="white" height="810" width="810" x="-5" y="-5"/>
<path d="M406,19 L347,786" stroke="lightgray" stroke-width="1"/>
<path d="M4,689 L659,189" stroke="lightgray" stroke-width="1"/>
<path d="M96,89 L424,397" stroke="lightgray" stroke-width="1"/>
<path d="M523,617 L212,413" stroke="lightgray" stroke-width="1"/>
<path d="M453,664 L592,230" stroke="lightgray" stroke-width="1"/>
<path d="M582,457 L46,186" stroke="lightgray" stroke-width="1"/>
<path d="M32,80 L671,402" stroke="lightgray" stroke-width="1"/>
<path d="M298,742 L653,538" stroke="lightgray" stroke-width="1"/>
<path d="M681,91 L152,276" stroke="lightgray" stroke-width="1"/>
<path d="M730,442 L375,423" stroke="lightgray" stroke-width="1"/>
<path d="M772,789 L347,232" stroke="lightgray" stroke-width="1"/>
<path d="M688,445 L99,358" stroke="lightgray" stroke-width="1"/>
<path d="M475,111 L593,277" stroke="lightgray" stroke-width="1"/>
<path d="M178,196 L431,383" stroke="lightgray" stroke-width="1"/>
<path d="M9,518 L747,560" stroke="lightgray" stroke-width="1"/>
<path d="M641,116 L272,493" stroke="lightgray" stroke-width="1"/>
<path d="M536,591 L52,643" stroke="lightgray" stroke-width="1"/>
<path d="M546,121 L328,203" stroke="lightgray" stroke-width="1"/>
<path d="M618,75 L452,281" stroke="lightgray" stroke-width="1"/>
<path d="M257,746 L579,470" stroke="lightgray" stroke-width="1"/>
<path d="M475,417 L232,454" stroke="lightgray" stroke-width="1"/>
<path d="M90,95 L355,119" stroke="lightgray" stroke-width="1"/>
<path d="M10,388 L410,304" stroke="lightgray" stroke-width="1"/>
<path d="M355,159 L724,244" stroke="lightgray" stroke-width="1"/>
<path d="M720,258 L414,313" stroke="lightgray" stroke-width="1"/>
<path d="M747,43 L652,63" stroke="lightgray" stroke-width="1"/>
<path d="M632,138 L739,313" stroke="lightgray" stroke-width="1"/>
<path d="M531,476 L39,744" stroke="lightgray" stroke-width="1"/>
<path d="M302,262 L790,345" stroke="lightgray" stroke-width="1"/>
<path d="M550,77 L402,558" stroke="lightgray" stroke-width="1"/>
<path d="M786,533 L149,571" stroke="lightgray" stroke-width="1"/>
<path d="M673,310 L111,393" stroke="lightgray" stroke-width="1"/>
<path d="M563,395 L128,47" stroke="lightgray" stroke-width="1"/>
<path d="M92,728 L594,613" stroke="lightgray" stroke-width="1"/>
<path d="M737,324 L382,261" stroke="lightgray" stroke-width="1"/>
<path d="M727,244 L83,733" stroke="lightgray" stroke-width="1"/>
<path d="M288,175 L785,34" stroke="lightgray" stroke-width="1"/>
<path d="M733,597 L128,174" stroke="lightgray" stroke-width="1"/>
<path d="M787,446 L212,522" stroke="lightgray" stroke-width="1"/>
<path d="M367,459 L661,366" stroke="lightgray" stroke-width="1"/>
<path d="M673,60 L273,695" stroke="lightgray" stroke-width="1"/>
<path d="M341,234 L349,29" stroke="lightgray" stroke-width="1"/>
<path d="M212,1 L532,391" stroke="lightgray" stroke-width="1"/>
<path d="M177,524 L413,243" stroke="lightgray" stroke-width="1"/>
<path d="M483,321 L200,417" stroke="lightgray" stroke-width="1"/>
<path d="M4,477 L315,373" stroke="lightgray" stroke-width="1"/>
<path d="M143,6 L474,485" stroke="lightgray" stroke-width="1"/>
<path d="M749,353 L164,196" stroke="lightgray" stroke-width="1"/>
<path d="M465,400 L18,330" stroke="lightgray" stroke-width="1"/>
<path d="M242,533 L212,220" stroke="lightgray" stroke-width="1"/>
<path d="M400,400 L406,19" stroke="brown" stroke-width="3"/>
<path d="M406,19 L347,786" stroke="brown" stroke-width="3"/>
<path d="M347,786 L4,689" stroke="brown" stroke-width="3"/>
<path d="M4,689 L659,189" stroke="brown" stroke-width="3"/>
<path d="M659,189 L96,89" stroke="brown" stroke-width="3"/>
<path d="M96,89 L424,397" stroke="brown" stroke-width="3"/>
<path d="M424,397 L523,617" stroke="brown" stroke-width="3"/>
<path d="M523,617 L212,413" stroke="brown" stroke-width="3"/>
<path d="M212,413 L453,664" stroke="brown" stroke-width="3"/>
<path d="M453,664 L592,230" stroke="brown" stroke-width="3"/>
<path d="M592,230 L582,457" stroke="brown" stroke-width="3"/>
<path d="M582,457 L46,186" stroke="brown" stroke-width="3"/>
<path d="M46,186 L32,80" stroke="brown" stroke-width="3"/>
<path d="M32,80 L671,402" stroke="brown" stroke-width="3"/>
<path d="M671,402 L298,742" stroke="brown" stroke-width="3"/>
<path d="M298,742 L653,538" stroke="brown" stroke-width="3"/>
<path d="M653,538 L681,91" stroke="brown" stroke-width="3"/>
<path d="M681,91 L152,276" stroke="brown" stroke-width="3"/>
<path d="M152,276 L730,442" stroke="brown" stroke-width="3"/>
<path d="M730,442 L375,423" stroke="brown" stroke-width="3"/>
<path d="M375,423 L772,789" stroke="brown" stroke-width="3"/>
<path d="M772,789 L347,232" stroke="brown" stroke-width="3"/>
<path d="M347,232 L688,445" stroke="brown" stroke-width="3"/>
<path d="M688,445 L99,358" stroke="brown" stroke-width="3"/>
<path d="M99,358 L475,111" stroke="brown" stroke-width="3"/>
<path d="M475,111 L593,277" stroke="brown" stroke-width="3"/>
<path d="M593,277 L178,196" stroke="brown" stroke-width="3"/>
<path d="M178,196 L431,383" stroke="brown" stroke-width="3"/>
<path d="M431,383 L9,518" stroke="brown" stroke-width="3"/>
<path d="M9,518 L747,560" stroke="brown" stroke-width="3"/>
<path d="M747,560 L641,116" stroke="brown" stroke-width="3"/>
<path d="M641,116 L272,493" stroke="brown" stroke-width="3"/>
<path d="M272,493 L536,591" stroke="brown" stroke-width="3"/>
<path d="M536,591 L52,643" stroke="brown" stroke-width="3"/>
<path d="M52,643 L546,121" stroke="brown" stroke-width="3"/>
<path d="M546,121 L328,203" stroke="brown" stroke-width="3"/>
<path d="M328,203 L618,75" stroke="brown" stroke-width="3"/>
<path d="M618,75 L452,281" stroke="brown" stroke-width="3"/>
<path d="M452,281 L257,746" stroke="brown" stroke-width="3"/>
<path d="M257,746 L579,470" stroke="brown" stroke-width="3"/>
<path d="M579,470 L475,417" stroke="brown" stroke-width="3"/>
<path d="M475,417 L232,454" stroke="brown" stroke-width="3"/>
<path d="M232,454 L90,95" stroke="brown" stroke-width="3"/>
<path d="M90,95 L355,119" stroke="brown" stroke-width="3"/>
<path d="M355,119 L10,388" stroke="brown" stroke-width="3"/>
<path d="M10,388 L410,304" stroke="brown" stroke-width="3"/>
<path d="M410,304 L355,159" stroke="brown" stroke-width="3"/>
<path d="M355,159 L724,244" stroke="brown" stroke-width="3"/>
<path d="M724,244 L720,258" stroke="brown" stroke-width="3"/>
<path d="M720,258 L414,313" stroke="brown" stroke-width="3"/>
<path d="M414,313 L747,43" stroke="brown" stroke-width="3"/>
<path d="M747,43 L652,63" stroke="brown" stroke-width="3"/>
<path d="M652,63 L632,138" stroke="brown" stroke-width="3"/>
<path d="M632,138 L739,313" stroke="brown" stroke-width="3"/>
<path d="M739,313 L531,476" stroke="brown" stroke-width="3"/>
<path d="M531,476 L39,744" stroke="brown" stroke-width="3"/>
<path d="M39,744 L302,262" stroke="brown" stroke-width="3"/>
<path d="M302,262 L790,345" stroke="brown" stroke-width="3"/>
<path d="M790,345 L550,77" stroke="brown" stroke-width="3"/>
<path d="M550,77 L402,558" stroke="brown" stroke-width="3"/>
<path d="M402,558 L786,533" stroke="brown" stroke-width="3"/>
<path d="M786,533 L149,571" stroke="brown" stroke-width="3"/>
<path d="M149,571 L673,310" stroke="brown" stroke-width="3"/>
<path d="M673,310 L111,393" stroke="brown" stroke-width="3"/>
<path d="M111,393 L563,395" stroke="brown" stroke-width="3"/>
<path d="M563,395 L128,47" stroke="brown" stroke-width="3"/>
<path d="M128,47 L92,728" stroke="brown" stroke-width="3"/>
<path d="M92,728 L594,613" stroke="brown" stroke-width="3"/>
<path d="M594,613 L737,324" stroke="brown" stroke-width="3"/>
<path d="M737,324 L382,261" stroke="brown" stroke-width="3"/>
<path d="M382,261 L727,244" stroke="brown" stroke-width="3"/>
<path d="M727,244 L83,733" stroke="brown" stroke-width="3"/>
<path d="M83,733 L288,175" stroke="brown" stroke-width="3"/>
<path d="M288,175 L785,34" stroke="brown" stroke-width="3"/>
<path d="M785,34 L733,597" stroke="brown" stroke-width="3"/>
<path d="M733,597 L128,174" stroke="brown" stroke-width="3"/>
<path d="M128,174 L787,446" stroke="brown" stroke-width="3"/>
<path d="M787,446 L212,522" stroke="brown" stroke-width="3"/>
<path d="M212,522 L367,459" stroke="brown" stroke-width="3"/>
<path d="M367,459 L661,366" stroke="brown" stroke-width="3"/>
<path d="M661,366 L673,60" stroke="brown" stroke-width="3"/>
<path d="M673,60 L273,695" stroke="brown" stroke-width="3"/>
<path d="M273,695 L341,234" stroke="brown" stroke-width="3"/>
<path d="M341,234 L349,29" stroke="brown" stroke-width="3"/>
<path d="M349,29 L212,1" stroke="brown" stroke-width="3"/>
<path d="M212,1 L532,391" stroke="brown" stroke-width="3"/>
<path d="M532,391 L177,524" stroke="brown" stroke-width="3"/>
<path d="M177,524 L413,243" stroke="brown" stroke-width="3"/>
<path d="M413,243 L483,321" stroke="brown" stroke-width="3"/>
<path d="M483,321 L200,417" stroke="brown" stroke-width="3"/>
<path d="M200,417 L4,477" stroke="brown" stroke-width="3"/>
<path d="M4,477 L315,373" stroke="brown" stroke-width="3"/>
<path d="M315,373 L143,6" stroke="brown" stroke-width="3"/>
<path d="M143,6 L474,485" stroke="brown" stroke-width="3"/>
<path d="M474,485 L749,353" stroke="brown" stroke-width="3"/>
<path d="M749,353 L164,196" stroke="brown" stroke-width="3"/>
<path d="M164,196 L465,400" stroke="brown" stroke-width="3"/>
<path d="M465,400 L18,330" stroke="brown" stroke-width="3"/>
<path d="M18,330 L242,533" stroke="brown" stroke-width="3"/>
<path d="M242,533 L212,220" stroke="brown" stroke-width="3"/>
<path d="M212,220 L400,400" stroke="brown" stroke-width="3"/>
<circle cx="406" cy="19" fill="red" r="6"/>
<circle cx="347" cy="786" fill="green" r="6"/>
<circle cx="4" cy="689" fill="red" r="6"/>
<circle cx="659" cy="189" fill="green" r="6"/>
<circle cx="96" cy="89" fill="red" r="6"/>
<circle cx="424" cy="397" fill="green" r="6"/>
<circle cx="523" cy="617" fill="red" r="6"/>
<circle cx="212" cy="413" fill="green" r="6"/>
<circle cx="453" cy="664" fill="red" r="6"/>
<circle cx="592" cy="230" fill="green" r="6"/>
<circle cx="582" cy="457" fill="red" r="6"/>
<circle cx="46" cy="186" fill="green" r="6"/>
<circle cx="32" cy="80" fill="red" r="6"/>
<circle cx="671" cy="402" fill="green" r="6"/>
<circle cx="298" cy="742" fill="red" r="6"/>
<circle cx="653" cy="538" fill="green" r="6"/>
<circle cx="681" cy="91" fill="red" r="6"/>
<circle cx="152" cy="276" fill="green" r="6"/>
<circle cx="730" cy="442" fill="red" r="6"/>
<circle cx="375" cy="423" fill="green" r="6"/>
<circle cx="772" cy="789" fill="red" r="6"/>
<circle cx="347" cy="232" fill="green" r="6"/>
<circle cx="688" cy="445" fill="red" r="6"/>
<circle cx="99" cy="358" fill="green" r="6"/>
<circle cx="475" cy="111" fill="red" r="6"/>
<circle cx="593" cy="277" fill="green" r="6"/>
<circle cx="178" cy="196" fill="red" r="6"/>
<circle cx="431" cy="383" fill="green" r="6"/>
<circle cx="9" cy="518" fill="red" r="6"/>
<circle cx="747" cy="560" fill="green" r="6"/>
<circle cx="641" cy="116" fill="red" r="6"/>
<circle cx="272" cy="493" fill="green" r="6"/>
<circle cx="536" cy="591" fill="red" r="6"/>
<circle cx="52" cy="643" fill="green" r="6"/>
<circle cx="546" cy="121" fill="red" r="6"/>
<circle cx="328" cy="203" fill="green" r="6"/>
<circle cx="618" cy="75" fill="red" r="6"/>
<circle cx="452" cy="281" fill="green" r="6"/>
<circle cx="257" cy="746" fill="red" r="6"/>
<circle cx="579" cy="470" fill="green" r="6"/>
<circle cx="475" cy="417" fill="red" r="6"/>
<circle cx="232" cy="454" fill="green" r="6"/>
<circle cx="90" cy="95" fill="red" r="6"/>
<circle cx="355" cy="119" fill="green" r="6"/>
<circle cx="10" cy="388" fill="red" r="6"/>
<circle cx="410" cy="304" fill="green" r="6"/>
<circle cx="355" cy="159" fill="red" r="6"/>
<circle cx="724" cy="244" fill="green" r="6"/>
<circle cx="720" cy="258" fill="red" r="6"/>
<circle cx="414" cy="313" fill="green" r="6"/>
<circle cx="747" cy="43" fill="red" r="6"/>
<circle cx="652" cy="63" fill="green" r="6"/>
<circle cx="632" cy="138" fill="red" r="6"/>
<circle cx="739" cy="313" fill="green" r="6"/>
<circle cx="531" cy="476" fill="red" r="6"/>
<circle cx="39" cy="744" fill="green" r="6"/>
<circle cx="302" cy="262" fill="red" r="6"/>
<circle cx="790" cy="345" fill="green" r="6"/>
<circle cx="550" cy="77" fill="red" r="6"/>
<circle cx="402" cy="558" fill="green" r="6"/>
<circle cx="786" cy="533" fill="red" r="6"/>
<circle cx="149" cy="571" fill="green" r="6"/>
<circle cx="673" cy="310" fill="red" r="6"/>
<circle cx="111" cy="393" fill="green" r="6"/>
<circle cx="563" cy="395" fill="red" r="6"/>
<circle cx="128" cy="47" fill="green" r="6"/>
<circle cx="92" cy="728" fill="red" r="6"/>
<circle cx="594" cy="613" fill="green" r="6"/>
<circle cx="737" cy="324" fill="red" r="6"/>
<circle cx="382" cy="261" fill="green" r="6"/>
<circle cx="727" cy="244" fill="red" r="6"/>
<circle cx="83" cy="733" fill="green" r="6"/>
<circle cx="288" cy="175" fill="red" r="6"/>
<circle cx="785" cy="34" fill="green" r="6"/>
<circle cx="733" cy="597" fill="red" r="6"/>
<circle cx="128" cy="174" fill="green" r="6"/>
<circle cx="787" cy="446" fill="red" r="6"/>
<circle cx="212" cy="522" fill="green" r="6"/>
<circle cx="367" cy="459" fill="red" r="6"/>
<circle cx="661" cy="366" fill="green" r="6"/>
<circle cx="673" cy="60" fill="red" r="6"/>
<circle cx="273" cy="695" fill="green" r="6"/>
<circle cx="341" cy="234" fill="red" r="6"/>
<circle cx="349" cy="29" fill="green" r="6"/>
<circle cx="212" cy="1" fill="red" r="6"/>
<circle cx="532" cy="391" fill="green" r="6"/>
<circle cx="177" cy="524" fill="red" r="6"/>
<circle cx="413" cy="243" fill="green" r="6"/>
<circle cx="483" cy="321" fill="red" r="6"/>
<circle cx="200" cy="417" fill="green" r="6"/>
<circle cx="4" cy="477" fill="red" r="6"/>
<circle cx="315" cy="373" fill="green" r="6"/>
<circle cx="143" cy="6" fill="red" r="6"/>
<circle cx="474" cy="485" fill="green" r="6"/>
<circle cx="749" cy="353" fill="red" r="6"/>
<circle cx="164" cy="196" fill="green" r="6"/>
<circle cx="465" cy="400" fill="red" r="6"/>
<circle cx="18" cy="330" fill="green" r="6"/>
<circle cx="242" cy="533" fill="red" r="6"/>
<circle cx="212" cy="220" fill="green" r="6"/>
<circle cx="400" cy="400" fill="gray" r="6"/>
</svg>